<?xml version="1.0" encoding="UTF-8" standalone="no"?>
<!-- Created with Inkscape (http://www.inkscape.org/) -->

<svg
   width="48"
   height="48"
   viewBox="0 0 12.7 12.7"
   version="1.1"
   id="svg5"
   xml:space="preserve"
   inkscape:export-filename="email-icon.svg"
   inkscape:export-xdpi="96"
   inkscape:export-ydpi="96"
   xmlns:inkscape="http://www.inkscape.org/namespaces/inkscape"
   xmlns:sodipodi="http://sodipodi.sourceforge.net/DTD/sodipodi-0.dtd"
   xmlns="http://www.w3.org/2000/svg"
   xmlns:svg="http://www.w3.org/2000/svg"><sodipodi:namedview
     id="namedview7"
     pagecolor="#505050"
     bordercolor="#ffffff"
     borderopacity="1"
     inkscape:showpageshadow="0"
     inkscape:pageopacity="0"
     inkscape:pagecheckerboard="1"
     inkscape:deskcolor="#505050"
     inkscape:document-units="mm"
     showgrid="false"
     showguides="false"
     inkscape:zoom="22.2225"
     inkscape:cx="16.267297"
     inkscape:cy="0.80998988"
     inkscape:window-width="1600"
     inkscape:window-height="831"
     inkscape:window-x="0"
     inkscape:window-y="0"
     inkscape:window-maximized="1"
     inkscape:current-layer="layer1" /><defs
     id="defs2" /><g
     inkscape:label="Layer 1"
     inkscape:groupmode="layer"
     id="layer1"><path
       style="fill:#FFF;stroke-width:0.0267932"
       d="M 1.2931641,12.256797 C 0.84975258,12.137381 0.52083777,11.791684 0.4291341,11.348682 0.40997872,11.256146 0.4033091,9.6403779 0.40816865,6.2696203 l 0.007127,-4.9433545 0.0607591,-0.1501837 C 0.61098926,0.84255192 0.84195301,0.6109241 1.1728807,0.47725228 l 0.1533851,-0.0619569 4.9433545,-0.007127 c 3.3707576,-0.00486 4.9865257,0.00181 5.0790617,0.0209654 0.328949,0.068094 0.640769,0.2954173 0.794476,0.57918902 0.164114,0.3029838 0.154943,-0.013175 0.154943,5.3416769 0,5.3114593 0.0077,5.0257783 -0.144271,5.3257563 -0.08453,0.166807 -0.309144,0.39247 -0.473597,0.475805 -0.305395,0.154755 -0.008,0.146695 -5.3425606,0.144777 -4.131908,-0.0015 -4.9263242,-0.0077 -5.0445083,-0.03954 z m 9.7379849,-0.812263 c 0.173989,-0.07867 0.357683,-0.27165 0.425177,-0.44666 0.04991,-0.129406 0.05137,-0.262197 0.05137,-4.647874 0,-4.3856769 -0.0015,-4.5184683 -0.05137,-4.647874 C 11.388832,1.5271162 11.205138,1.3341401 11.031149,1.2554662 L 10.891456,1.1922996 H 6.35 1.8085443 L 1.6688506,1.2554662 C 1.4948621,1.3341401 1.3111676,1.5271162 1.2436737,1.702126 1.1937674,1.8315317 1.1922996,1.9643231 1.1922996,6.35 c 0,4.376091 0.00157,4.518726 0.051062,4.647057 0.057078,0.147993 0.225176,0.345234 0.3494469,0.410031 0.2185405,0.11395 0.087239,0.111057 4.7973813,0.105716 L 10.891456,11.5077 Z M 2.7597046,10.234298 C 2.3794252,10.181423 2.0374557,9.9411988 1.8809901,9.6170257 1.7715076,9.3901946 1.7659125,9.2723247 1.773999,7.3630905 1.7817511,5.5328059 1.7817511,5.5328059 1.8425481,5.400974 1.9837298,5.0948368 2.1312171,4.9799133 3.1086331,4.4144278 3.9470705,3.9293487 6.3054533,2.6525316 6.3629958,2.6525316 c 0.054427,0 3.9753172,2.2253433 4.1074092,2.3312043 0.08288,0.066419 0.190313,0.1727178 0.238748,0.2362208 0.173446,0.2274031 0.171095,0.1942122 0.162905,2.2995263 l -0.0074,1.901183 -0.101073,0.2044781 c -0.16731,0.3384791 -0.470262,0.5520099 -0.8634835,0.6086119 -0.2210446,0.03182 -6.9118118,0.03233 -7.1404009,5.44e-4 z M 9.8951809,9.4995783 C 10.010286,9.4585268 10.101055,9.3861662 10.101055,9.3354571 10.101055,9.2592316 7.5635581,7.9922641 6.8054852,7.689985 6.3813644,7.5208685 6.3768886,7.5203366 6.1333342,7.6101379 5.6573374,7.7856436 4.3448964,8.421101 3.0313381,9.1120616 2.5699049,9.3547857 2.5665787,9.3571789 2.618479,9.409079 2.7488759,9.5394759 2.64839,9.5360444 6.3366034,9.5360444 c 2.8474914,0 3.4743403,-0.00642 3.5585775,-0.036466 z M 2.8903389,8.3021679 C 3.6954827,7.8802495 3.7966934,7.8275226 3.9346154,7.7581404 L 4.0779861,7.6860172 3.2955637,7.2993376 C 2.8652317,7.086664 2.5083335,6.9126582 2.5024569,6.9126582 c -0.00588,0 -0.010685,0.3556804 -0.010685,0.7904009 0,0.4347204 0.00754,0.7904008 0.016763,0.7904008 0.00922,0 0.1810312,-0.086081 0.381804,-0.191292 z M 10.154641,7.691236 V 6.9425986 L 9.8532173,7.0851802 C 9.6874341,7.1636003 9.3469827,7.3262418 9.0966585,7.4466056 L 8.6415237,7.6654494 9.3913842,8.0508009 c 0.4124234,0.2119432 0.7528748,0.3861888 0.7565588,0.387212 0.0037,0.00102 0.0067,-0.3350263 0.0067,-0.7467769 z M 5.3534958,7.0833371 C 6.300208,6.663417 6.4092935,6.6629111 7.3668424,7.0739997 l 0.360408,0.1547278 0.1352671,-0.061496 C 7.9369146,7.1334083 8.401693,6.9106436 8.8953586,6.6721985 9.3890243,6.4337536 9.874317,6.201814 9.9737869,6.1567775 L 10.154641,6.0748931 V 5.8662222 c 0,-0.2086709 0,-0.2086709 -0.104479,-0.297837 C 9.9926989,5.5193442 9.1372768,5.0251762 8.1492245,4.4702344 L 6.3527656,3.4612492 5.7979227,3.7551076 c -1.5225467,0.8063779 -3.0520434,1.678338 -3.217233,1.8341319 -0.088697,0.083652 -0.09123,0.091749 -0.083497,0.2668875 l 0.00798,0.1806184 1.2190928,0.5978367 c 0.6705011,0.3288102 1.234859,0.5982324 1.2541288,0.598716 0.01927,4.823e-4 0.1880674,-0.066999 0.3751054,-0.149961 z"
       id="path537" /></g></svg>
