<?xml version="1.0" encoding="UTF-8" standalone="no"?>
<!-- Created with Inkscape (http://www.inkscape.org/) -->

<svg
   width="48"
   height="48"
   viewBox="0 0 12.7 12.7"
   version="1.1"
   id="svg5"
   xml:space="preserve"
   xmlns:inkscape="http://www.inkscape.org/namespaces/inkscape"
   xmlns:sodipodi="http://sodipodi.sourceforge.net/DTD/sodipodi-0.dtd"
   xmlns="http://www.w3.org/2000/svg"
   xmlns:svg="http://www.w3.org/2000/svg"><sodipodi:namedview
     id="namedview7"
     pagecolor="#505050"
     bordercolor="#ffffff"
     borderopacity="1"
     inkscape:showpageshadow="0"
     inkscape:pageopacity="0"
     inkscape:pagecheckerboard="1"
     inkscape:deskcolor="#505050"
     inkscape:document-units="mm"
     showgrid="false"
     showguides="false"
     inkscape:zoom="22.2225"
     inkscape:cx="16.267297"
     inkscape:cy="0.80998988"
     inkscape:window-width="1600"
     inkscape:window-height="831"
     inkscape:window-x="0"
     inkscape:window-y="0"
     inkscape:window-maximized="1"
     inkscape:current-layer="layer1" /><defs
     id="defs2" /><g
     inkscape:label="Layer 1"
     inkscape:groupmode="layer"
     id="layer1"><path
       style="fill:#FFFFFF;stroke-width:0.0131289"
       d="M 4.3261605,12.681047 C 4.1079559,12.620886 3.5917263,12.388927 3.283071,12.212352 2.6966493,11.876872 2.2644354,11.537439 1.7880664,11.038273 0.85613154,10.06174 0.24427494,8.7882538 0.05869969,7.4388605 0.00876076,7.0757341 -8.0215017e-4,6.9218733 5.0453216e-5,6.4952339 9.7006795e-4,6.0350626 0.01621076,5.8398613 0.08382958,5.4221995 0.24717004,4.4132929 0.65799521,3.430902 1.2607982,2.6077582 1.608426,2.133063 2.0693649,1.6610303 2.5419168,1.2958057 4.0486449,0.13129007 6.0273605,-0.27880896 7.8776722,0.18994288 10.004599,0.72877152 11.725683,2.3756644 12.396238,4.5137255 c 0.503335,1.6048822 0.37727,3.3632053 -0.349319,4.8721955 -0.330068,0.685492 -0.724208,1.238423 -1.279392,1.794837 -0.639703,0.641119 -1.3905418,1.124743 -2.2514956,1.450215 -0.1445531,0.05464 -0.1778357,0.06243 -0.2687392,0.06283 -0.1538334,6.73e-4 -0.2402269,-0.05127 -0.296012,-0.17796 -0.025737,-0.05845 -0.026364,-0.08439 -0.027663,-1.142984 -0.00129,-1.052865 -0.0021,-1.086724 -0.028867,-1.209909 C 7.8270818,9.8515288 7.7201365,9.6213054 7.5643639,9.4517137 L 7.50272,9.3846012 7.6739848,9.3612673 C 8.3378326,9.2708219 8.8648918,9.0887585 9.2794111,8.8067009 9.495108,8.659931 9.7616327,8.38934 9.8997135,8.1769351 10.234506,7.6619354 10.394332,7.0276225 10.395445,6.2094879 10.395858,5.9064787 10.378104,5.7395748 10.320517,5.5050905 10.233628,5.1512881 10.061875,4.8065559 9.8320747,4.5247196 L 9.7479302,4.4215225 9.7783135,4.3294963 C 9.9172369,3.9087008 9.9031902,3.3640727 9.7405746,2.866142 9.6801382,2.681081 9.6838011,2.6845149 9.5442075,2.6822341 9.1921929,2.6764827 8.6352675,2.899931 8.0809431,3.269321 L 7.9405262,3.3628902 7.7372583,3.3137569 C 7.0188922,3.1401161 6.3088298,3.1028074 5.5691685,3.1998389 5.3312874,3.2310452 5.2291769,3.2502108 4.9575242,3.3146415 L 4.7544075,3.3628167 4.608769,3.2663681 C 4.0113813,2.87075 3.4103736,2.64368 3.0744744,2.6866877 l -0.071092,0.00911 -0.051588,0.1619869 C 2.8492173,3.1798774 2.8123553,3.4379271 2.8232958,3.7573252 c 0.00734,0.2140535 0.039674,0.42335 0.087375,0.5654308 0.014171,0.042208 0.025758,0.083282 0.025749,0.091274 -8.7e-6,0.00799 -0.035966,0.059387 -0.079903,0.1142114 -0.3476105,0.4337302 -0.5313536,0.93376 -0.5629117,1.5318816 -0.00954,0.1807781 0.010775,0.5761327 0.041136,0.8006038 0.1995728,1.4755538 1.0513169,2.2801492 2.6453994,2.4989626 0.092142,0.012648 0.1749503,0.025081 0.1840192,0.02763 0.01,0.00281 -0.00469,0.026984 -0.037346,0.061427 -0.1525592,0.1609417 -0.298988,0.4842716 -0.3308751,0.7306056 -0.010486,0.08101 -0.024563,0.09155 -0.1994547,0.149425 -0.2810417,0.093 -0.524009,0.11987 -0.7392401,0.08176 C 3.4654717,10.341176 3.2140444,10.154232 2.9415665,9.7297055 2.7019657,9.3564022 2.4464354,9.1512313 2.1220958,9.0717344 1.8664239,9.0090681 1.6276212,9.0807901 1.6778866,9.2051505 c 0.024002,0.059381 0.1238831,0.1544292 0.2690319,0.2560125 0.2736397,0.191508 0.4810398,0.4728878 0.656318,0.890426 0.085138,0.202811 0.1726813,0.336408 0.3052866,0.465885 0.2069251,0.202044 0.4470229,0.323393 0.7752721,0.391833 0.092697,0.01933 0.1743845,0.0238 0.4198624,0.02303 0.266409,-8.44e-4 0.3272222,-0.0051 0.4830998,-0.03422 l 0.1783255,-0.03326 v 0.651363 c 0,0.631332 -8.249e-4,0.653109 -0.02682,0.708138 -0.035991,0.07619 -0.1012091,0.132202 -0.1828578,0.15705 -0.081785,0.02489 -0.1380119,0.0248 -0.2292453,-3.51e-4 z"
       id="path351" /></g></svg>
