<?xml version="1.0" encoding="UTF-8" standalone="no"?>
<!-- Created with Inkscape (http://www.inkscape.org/) -->

<svg
   width="48"
   height="48"
   viewBox="0 0 12.7 12.7"
   version="1.1"
   id="svg5"
   xml:space="preserve"
   inkscape:export-filename="github-icon.svg"
   inkscape:export-xdpi="96"
   inkscape:export-ydpi="96"
   xmlns:inkscape="http://www.inkscape.org/namespaces/inkscape"
   xmlns:sodipodi="http://sodipodi.sourceforge.net/DTD/sodipodi-0.dtd"
   xmlns="http://www.w3.org/2000/svg"
   xmlns:svg="http://www.w3.org/2000/svg"><sodipodi:namedview
     id="namedview7"
     pagecolor="#505050"
     bordercolor="#ffffff"
     borderopacity="1"
     inkscape:showpageshadow="0"
     inkscape:pageopacity="0"
     inkscape:pagecheckerboard="1"
     inkscape:deskcolor="#505050"
     inkscape:document-units="mm"
     showgrid="false"
     showguides="false"
     inkscape:zoom="22.2225"
     inkscape:cx="16.267297"
     inkscape:cy="0.80998988"
     inkscape:window-width="1600"
     inkscape:window-height="831"
     inkscape:window-x="0"
     inkscape:window-y="0"
     inkscape:window-maximized="1"
     inkscape:current-layer="layer1" /><defs
     id="defs2" /><g
     inkscape:label="Layer 1"
     inkscape:groupmode="layer"
     id="layer1"><path
       style="fill:#FFFFFF;stroke-width:0.0248047"
       d="M 6.2755859,11.888789 C 6.2551221,11.880328 5.9593262,11.665589 5.6182617,11.411592 5.2771973,11.157596 4.0060084,10.213703 2.7933977,9.3140518 1.2750473,8.187569 0.56985173,7.6499157 0.52826689,7.5870767 0.45577408,7.4775328 0.396875,7.2921262 0.396875,7.1734722 c 0,-0.047529 0.0956968,-0.377828 0.21265947,-0.7339972 C 0.72649715,6.0833057 0.91570669,5.5072607 1.0300001,5.159375 1.1442935,4.8114893 1.484775,3.762251 1.7866258,2.8277344 2.0884766,1.8932178 2.3533187,1.090831 2.3751638,1.0446526 2.5039052,0.77250692 2.9715363,0.74128409 3.1506832,0.99287266 3.1808311,1.0352115 3.4768859,1.9093146 3.8166715,2.9592057 L 4.4283848,4.8493164 H 6.3501119 8.2718392 L 8.8820347,2.9656482 C 9.2176424,1.9296305 9.5162774,1.0452955 9.5456683,1.0004592 9.6992743,0.76613075 10.127452,0.75836864 10.290224,0.98696172 c 0.05337,0.0749535 0.08632,0.17309028 0.830443,2.47329218 0.264804,0.8185547 0.640309,1.973833 0.834455,2.5672852 0.323267,0.9881398 0.351864,1.0902143 0.339589,1.2121262 C 12.279679,7.3889562 12.184292,7.604094 12.099025,7.6810225 12.068033,7.7089836 10.84833,8.6171162 9.3885742,9.6990949 7.9288184,10.781073 6.6726256,11.714542 6.5970348,11.773469 6.4620162,11.878724 6.3491589,11.919212 6.2755859,11.888789 Z M 7.2258049,8.080127 C 7.6992966,6.6033179 8.0866156,5.3866479 8.0865137,5.376416 8.0864117,5.3661841 7.3049805,5.3578125 6.35,5.3578125 c -0.9549805,0 -1.7363281,0.00822 -1.7363281,0.018263 0,0.041362 1.7234123,5.3891585 1.7367418,5.3891585 0.00797,0 0.4018992,-1.2082982 0.8753912,-2.685107 z M 3.2091342,7.9777798 C 2.2161364,6.6879197 1.4015544,5.6349389 1.398952,5.6378229 1.3963496,5.6407067 1.2796381,5.9908046 1.1395932,6.4158177 0.90852627,7.1170676 0.8877771,7.1951024 0.91534704,7.2591771 0.93713131,7.3098055 1.5190745,7.7550752 2.9719364,8.8327612 4.0863508,9.659398 5.0018437,10.332867 5.0063648,10.329359 5.0108857,10.325851 4.2021321,9.26764 3.2091342,7.9777798 Z M 10.10791,8.549642 c 0.84584,-0.627217 1.568997,-1.1691265 1.607015,-1.204243 0.03802,-0.035117 0.07519,-0.088007 0.0826,-0.1175331 0.01591,-0.063409 -0.485674,-1.6088843 -0.512613,-1.5794437 -0.0512,0.055953 -3.5954569,4.6713288 -3.5954569,4.6820478 0,0.007 0.1981275,-0.13429 0.4402832,-0.313889 C 8.3718921,9.8369815 9.2620703,9.176859 10.10791,8.549642 Z M 4.8645544,7.8424608 C 4.4302908,6.4888576 4.0695687,5.3759489 4.06295,5.3693303 4.05633,5.3627103 3.5528885,5.3602003 2.9441882,5.3637603 l -1.1067281,0.00646 1.9021506,2.472853 c 1.0461829,1.3600691 1.9049326,2.4700717 1.9083326,2.4666717 0.0034,-0.0034 -0.349125,-1.1136757 -0.7833889,-2.4672787 z M 8.9650406,7.8382812 10.864905,5.3702148 9.7569945,5.3637557 C 9.1476438,5.3602029 8.6439152,5.3624659 8.6375982,5.3687821 8.6312809,5.3750994 8.275832,6.4718927 7.8477115,7.8061006 6.9350168,10.650452 7.0352474,10.33404 7.051772,10.31875 7.0591442,10.311929 7.9201149,9.1957178 8.9650406,7.8382812 Z M 3.8879264,4.8059082 C 3.8814819,4.788855 3.6319381,4.0186694 3.3333846,3.0943848 3.0348312,2.1701001 2.7849716,1.4140805 2.7781414,1.4143413 2.7682855,1.4147176 1.8115051,4.3502389 1.6944947,4.7391045 l -0.029431,0.09781 h 1.11729 c 0.8835447,0 1.1148387,-0.00649 1.1055727,-0.031006 z m 7.1431316,0 C 11.024919,4.788855 10.775632,4.0187704 10.477087,3.0946092 10.178542,2.1704481 9.9286963,1.4142513 9.921875,1.4141719 9.9150537,1.4140925 9.6651636,2.1702243 9.3665638,3.0944649 9.067964,4.0187054 8.8184127,4.788855 8.8120056,4.8059082 c -0.00921,0.024519 0.2228607,0.031006 1.1092825,0.031006 0.8861619,0 1.1185939,-0.00649 1.1097699,-0.031006 z"
       id="path418" /></g></svg>
